# xmcd CD database file
#
# Track frame offsets:
#	150
#	16220
#	31767
#	48492
#	67580
#	76810
#	98505
#	111992
#	126250
#	142652
#	160100
#
# Disc length: 2305 seconds
#
# Revision: 0
# Processed by: cddbd v1.5.1PL0 Copyright (c) Steve Scherf et al.
# Submitted via: CDex 1.51
#
DISCID=7608ff0b
DTITLE=Mick Hadley and The Shakers - Butt out
DYEAR=1995
DGENRE=Blues
TTITLE0=Shakers' Twist
TTITLE1=I Wish You Would
TTITLE2=Butt Out
TTITLE3=Garbage Man Blues
TTITLE4=Come On In
TTITLE5=Who Do You Love?
TTITLE6=Alimony Blues
TTITLE7=Honest I Do
TTITLE8=Killing Floor
TTITLE9=Long Legged Baby
TTITLE10=Pipe Line
EXTD=YEAR: 1995
EXTT0=
EXTT1=
EXTT2=
EXTT3=
EXTT4=
EXTT5=
EXTT6=
EXTT7=
EXTT8=
EXTT9=
EXTT10=
PLAYORDER=
